<?xml version="1.0" encoding="utf-8"?>
<svg xmlns="http://www.w3.org/2000/svg" viewBox="0 0 48 48" width="144" height="144">
  <path d="M24 4 A 1.5 1.5 0 0 0 24 7 A 1.5 1.5 0 0 0 24 4 z M 29.503906 4.8242188 A 1.50015 1.50015 0 0 0 29.054688 7.7636719C34.375224 9.4184194 38.581581 13.624776 40.236328 18.945312 A 1.5002314 1.5002314 0 1 0 43.101562 18.054688C41.15231 11.787223 36.212776 6.84769 29.945312 4.8984375 A 1.50015 1.50015 0 0 0 29.503906 4.8242188 z M 18.451172 4.8261719 A 1.50015 1.50015 0 0 0 18.054688 4.8984375C11.787223 6.8476927 6.84769 11.787223 4.8984375 18.054688 A 1.5002316 1.5002316 0 1 0 7.7636719 18.945312C9.4184194 13.624777 13.624776 9.4184194 18.945312 7.7636719 A 1.50015 1.50015 0 0 0 18.451172 4.8261719 z M 32.361328 14.005859C32.214828 14.019234 32.068234 14.053828 31.927734 14.111328C31.029734 14.481328 23.074453 17.802453 20.439453 20.439453C17.803453 23.075453 14.482281 31.029734 14.113281 31.927734C13.881281 32.490734 14.012266 33.139359 14.447266 33.568359C14.733266 33.850359 15.113 34 15.5 34C15.699 34 15.900797 33.959906 16.091797 33.878906C17.014797 33.482906 25.174547 29.945547 27.560547 27.560547C29.946547 25.175547 33.483906 17.014797 33.878906 16.091797C34.118906 15.530797 33.996359 14.879312 33.568359 14.445312C33.245859 14.119813 32.800828 13.965734 32.361328 14.005859 z M 5.5 22.5 A 1.5 1.5 0 0 0 5.5 25.5 A 1.5 1.5 0 0 0 5.5 22.5 z M 24 22.5C24.828 22.5 25.5 23.172 25.5 24C25.5 24.828 24.828 25.5 24 25.5C23.172 25.5 22.5 24.828 22.5 24C22.5 23.172 23.172 22.5 24 22.5 z M 42.5 22.5 A 1.5 1.5 0 0 0 42.5 25.5 A 1.5 1.5 0 0 0 42.5 22.5 z M 6.3007812 27.980469 A 1.50015 1.50015 0 0 0 4.8984375 29.945312C6.84769 36.212776 11.787223 41.15231 18.054688 43.101562 A 1.5002314 1.5002314 0 1 0 18.945312 40.236328C13.624777 38.581581 9.4184194 34.375224 7.7636719 29.054688 A 1.50015 1.50015 0 0 0 6.3007812 27.980469 z M 41.654297 27.980469 A 1.50015 1.50015 0 0 0 40.236328 29.054688C38.581581 34.375223 34.375224 38.581581 29.054688 40.236328 A 1.5002314 1.5002314 0 1 0 29.945312 43.101562C36.212777 41.15231 41.15231 36.212777 43.101562 29.945312 A 1.50015 1.50015 0 0 0 41.654297 27.980469 z M 24 41 A 1.5 1.5 0 0 0 24 44 A 1.5 1.5 0 0 0 24 41 z" fill="#615A5A" />
</svg>